<svg width="24" height="24" viewBox="0 0 24 24" fill="none" xmlns="http://www.w3.org/2000/svg">
<mask id="mask0_7_455" style="mask-type:alpha" maskUnits="userSpaceOnUse" x="0" y="0" width="24" height="24">
<rect width="24" height="24" fill="#D9D9D9"/>
</mask>
<g mask="url(#mask0_7_455)">
<path d="M19.8577 20.8203C17.9731 20.8203 16.0798 20.3821 14.1779 19.5058C12.276 18.6296 10.5286 17.3933 8.93563 15.7972C7.34268 14.201 6.10807 12.4536 5.23178 10.5549C4.3555 8.6562 3.91736 6.76454 3.91736 4.87994C3.91736 4.57719 4.01736 4.3249 4.21736 4.12306C4.41736 3.92123 4.66736 3.82031 4.96736 3.82031H8.22886C8.48143 3.82031 8.70418 3.90269 8.89713 4.06744C9.09008 4.23219 9.21283 4.43571 9.26538 4.67801L9.83846 7.62029C9.87821 7.89337 9.86988 8.12799 9.81346 8.32414C9.75706 8.52029 9.65578 8.68503 9.50961 8.81836L7.20001 11.0664C7.57181 11.7472 7.99649 12.3911 8.47406 12.9982C8.95163 13.6052 9.46861 14.185 10.025 14.7376C10.5737 15.2863 11.1571 15.7959 11.775 16.2665C12.393 16.737 13.0603 17.1748 13.777 17.5799L16.0212 15.3165C16.1776 15.1536 16.367 15.0395 16.5895 14.9742C16.8119 14.9088 17.043 14.8928 17.2827 14.9261L20.0596 15.4915C20.3122 15.5581 20.5183 15.687 20.6779 15.878C20.8375 16.069 20.9173 16.2857 20.9173 16.528V19.7703C20.9173 20.0703 20.8164 20.3203 20.6146 20.5203C20.4127 20.7203 20.1604 20.8203 19.8577 20.8203ZM6.49041 9.64724L8.27503 7.93954C8.30708 7.91389 8.32792 7.87863 8.33753 7.83376C8.34715 7.78888 8.34555 7.74721 8.33273 7.70876L7.89811 5.47414C7.88529 5.42285 7.86286 5.3844 7.83081 5.35876C7.79876 5.33311 7.75709 5.32029 7.70581 5.32029H5.56733C5.52888 5.32029 5.49683 5.33311 5.47118 5.35876C5.44553 5.3844 5.43271 5.41645 5.43271 5.45491C5.48399 6.13825 5.59585 6.83248 5.76828 7.53761C5.94073 8.24275 6.18144 8.94596 6.49041 9.64724ZM15.1904 18.2895C15.8532 18.5985 16.5446 18.8347 17.2644 18.9982C17.9843 19.1616 18.6571 19.2587 19.2827 19.2895C19.3212 19.2895 19.3532 19.2767 19.3789 19.2511C19.4045 19.2254 19.4173 19.1934 19.4173 19.1549V17.0511C19.4173 16.9998 19.4045 16.9581 19.3789 16.926C19.3532 16.894 19.3148 16.8716 19.2635 16.8587L17.1635 16.4318C17.125 16.419 17.0914 16.4174 17.0625 16.427C17.0337 16.4366 17.0032 16.4575 16.9712 16.4895L15.1904 18.2895Z" fill="#1C1B1F"/>
</g>
</svg>
